<svg width="732" height="688" viewBox="0 0 732 688" fill="none" xmlns="http://www.w3.org/2000/svg">
<g clip-path="url(#clip0_116_15447)">
<path fill-rule="evenodd" clip-rule="evenodd" d="M349.785 222.615C360.128 216.644 372.871 216.644 383.213 222.615L446.61 259.217C456.952 265.188 463.324 276.224 463.324 288.167V361.37C463.324 373.313 456.952 384.349 446.61 390.32L383.213 426.922C372.871 432.893 360.128 432.893 349.785 426.922L286.389 390.32C276.046 384.349 269.675 373.313 269.675 361.37V288.167C269.675 276.224 276.046 265.188 286.389 259.217L349.785 222.615ZM300.818 324.201V289.568C300.818 287.574 301.883 285.732 303.612 284.738L360.55 252.004C364.234 249.885 368.766 249.885 372.451 252.004L429.388 284.738C431.117 285.732 432.183 287.574 432.183 289.568V324.201C432.183 328.511 427.499 331.189 423.785 329.002L372.558 298.837C368.819 296.636 364.181 296.636 360.442 298.837L309.216 329.002C305.502 331.189 300.818 328.511 300.818 324.201ZM369.286 335.555C367.562 334.56 365.438 334.56 363.715 335.555L340.27 349.091C338.546 350.086 337.484 351.926 337.484 353.916V380.988C337.484 382.978 338.546 384.817 340.27 385.813L363.715 399.348C365.438 400.344 367.562 400.344 369.286 399.348L392.73 385.813C394.454 384.817 395.516 382.978 395.516 380.988V353.916C395.516 351.926 394.454 350.086 392.731 349.091L369.286 335.555Z" fill="black"/>
<path fill-rule="evenodd" clip-rule="evenodd" d="M349.785 222.615C360.128 216.644 372.871 216.644 383.213 222.615L446.61 259.217C456.952 265.188 463.324 276.224 463.324 288.167V361.37C463.324 373.313 456.952 384.349 446.61 390.32L383.213 426.922C372.871 432.893 360.128 432.893 349.785 426.922L286.389 390.32C276.046 384.349 269.675 373.313 269.675 361.37V288.167C269.675 276.224 276.046 265.188 286.389 259.217L349.785 222.615ZM300.818 324.201V289.568C300.818 287.574 301.883 285.732 303.612 284.738L360.55 252.004C364.234 249.885 368.766 249.885 372.451 252.004L429.388 284.738C431.117 285.732 432.183 287.574 432.183 289.568V324.201C432.183 328.511 427.499 331.189 423.785 329.002L372.558 298.837C368.819 296.636 364.181 296.636 360.442 298.837L309.216 329.002C305.502 331.189 300.818 328.511 300.818 324.201ZM369.286 335.555C367.562 334.56 365.438 334.56 363.715 335.555L340.27 349.091C338.546 350.086 337.484 351.926 337.484 353.916V380.988C337.484 382.978 338.546 384.817 340.27 385.813L363.715 399.348C365.438 400.344 367.562 400.344 369.286 399.348L392.73 385.813C394.454 384.817 395.516 382.978 395.516 380.988V353.916C395.516 351.926 394.454 350.086 392.731 349.091L369.286 335.555Z" fill="black"/>
</g>
<defs>
<clipPath id="clip0_116_15447">
<rect width="731" height="688" fill="white" transform="translate(0.5)"/>
</clipPath>
</defs>
</svg>
